<?xml version="1.0" encoding="UTF-8" standalone="no"?><svg xmlns="http://www.w3.org/2000/svg" xmlns:xlink="http://www.w3.org/1999/xlink" contentScriptType="application/ecmascript" contentStyleType="text/css" height="665.9016px" preserveAspectRatio="none" style="width:631px;height:665px;" version="1.1" viewBox="0 0 631 665" width="631.4754px" zoomAndPan="magnify"><defs><filter height="300%" id="fw9iptk2vf0v0" width="300%" x="-1" y="-1"><feGaussianBlur result="blurOut" stdDeviation="1.9672131147540983"/><feColorMatrix in="blurOut" result="blurOut2" type="matrix" values="0 0 0 0 0 0 0 0 0 0 0 0 0 0 0 0 0 0 .4 0"/><feOffset dx="3.9344262295081966" dy="3.9344262295081966" in="blurOut2" result="blurOut3"/><feBlend in="SourceGraphic" in2="blurOut3" mode="normal"/></filter></defs><g><ellipse cx="382.1548" cy="32.459" fill="#000000" filter="url(#fw9iptk2vf0v0)" rx="9.8361" ry="9.8361" style="stroke: none; stroke-width: 0.9836065573770492;"/><rect fill="#FEFECE" filter="url(#fw9iptk2vf0v0)" height="49.1803" rx="12.2951" ry="12.2951" style="stroke: #A80036; stroke-width: 1.4754098360655736;" width="60" x="427.1548" y="7.8689"/><line style="stroke: #A80036; stroke-width: 1.4754098360655736;" x1="427.1548" x2="487.1548" y1="36.5116" y2="36.5116"/><text fill="#000000" font-family="sans-serif" font-size="13.7705" lengthAdjust="spacingAndGlyphs" textLength="40.3279" x="436.9908" y="28.5678">State1</text><rect fill="#FEFECE" filter="url(#fw9iptk2vf0v0)" height="49.1803" rx="12.2951" ry="12.2951" style="stroke: #A80036; stroke-width: 1.4754098360655736;" width="60" x="246.1711" y="135.7377"/><line style="stroke: #A80036; stroke-width: 1.4754098360655736;" x1="246.1711" x2="306.1711" y1="164.3804" y2="164.3804"/><text fill="#000000" font-family="sans-serif" font-size="13.7705" lengthAdjust="spacingAndGlyphs" textLength="40.3279" x="256.0072" y="156.4367">State2</text><ellipse cx="278.8761" cy="645.2459" fill="none" filter="url(#fw9iptk2vf0v0)" rx="9.8361" ry="9.8361" style="stroke: #000000; stroke-width: 0.9836065573770492;"/><ellipse cx="279.3679" cy="645.7377" fill="#000000" rx="5.9016" ry="5.9016" style="stroke: none; stroke-width: 0.9836065573770492;"/><rect fill="#FEFECE" filter="url(#fw9iptk2vf0v0)" height="292.2493" rx="12.2951" ry="12.2951" style="stroke: #A80036; stroke-width: 1.4754098360655736;" width="305.9016" x="123.2203" y="264.0984"/><rect fill="#FFFFFF" height="257.7049" rx="12.2951" ry="12.2951" style="stroke: #FFFFFF; stroke-width: 0.9836065573770492;" width="300" x="126.1711" y="295.6919"/><line style="stroke: #A80036; stroke-width: 1.4754098360655736;" x1="123.2203" x2="429.122" y1="292.7411" y2="292.7411"/><text fill="#000000" font-family="sans-serif" font-size="13.7705" lengthAdjust="spacingAndGlyphs" textLength="40.3279" x="256.0072" y="284.7973">State3</text><rect fill="#FEFECE" filter="url(#fw9iptk2vf0v0)" height="73.4055" rx="12.2951" ry="12.2951" style="stroke: #A80036; stroke-width: 1.4754098360655736;" width="177.0492" x="134.04" y="363.069"/><line style="stroke: #A80036; stroke-width: 1.4754098360655736;" x1="134.04" x2="311.0892" y1="410.5184" y2="410.5184"/><text fill="#000000" font-family="sans-serif" font-size="13.7705" lengthAdjust="spacingAndGlyphs" textLength="157.377" x="143.8761" y="383.7679">Accumulate Enough Data</text><text fill="#000000" font-family="sans-serif" font-size="13.7705" lengthAdjust="spacingAndGlyphs" textLength="107.2131" x="168.958" y="402.5746">Long State Name</text><text fill="#000000" font-family="sans-serif" font-size="11.8033" lengthAdjust="spacingAndGlyphs" textLength="55.082" x="138.958" y="428.9629">Just a test</text><ellipse cx="222.5646" cy="315.364" fill="#000000" filter="url(#fw9iptk2vf0v0)" rx="9.8361" ry="9.8361" style="stroke: none; stroke-width: 0.9836065573770492;"/><rect fill="#FEFECE" filter="url(#fw9iptk2vf0v0)" height="49.1803" rx="12.2951" ry="12.2951" style="stroke: #A80036; stroke-width: 1.4754098360655736;" width="99.3443" x="173.1384" y="492.4132"/><line style="stroke: #A80036; stroke-width: 1.4754098360655736;" x1="173.1384" x2="272.4826" y1="521.056" y2="521.056"/><text fill="#000000" font-family="sans-serif" font-size="13.7705" lengthAdjust="spacingAndGlyphs" textLength="79.6721" x="182.9744" y="513.1122">ProcessData</text><!--link *start*State3 to long1--><path d="M222.5646,325.505 C222.5646,333.4467 222.5646,345.5352 222.5646,357.6277 " fill="none" id="*start*State3-long1" style="stroke: #A80036; stroke-width: 0.9836065573770492;"/><polygon fill="#A80036" points="222.5646,362.7985,226.499,353.946,222.5646,357.8804,218.6302,353.946,222.5646,362.7985" style="stroke: #A80036; stroke-width: 0.9836065573770492;"/><!--link long1 to long1--><path d="M311.2879,391.0791 C321.8784,392.6922 328.7941,395.6509 328.7941,399.9542 C328.7941,403.5178 324.0511,406.1588 316.4066,407.8781 " fill="none" id="long1-long1" style="stroke: #A80036; stroke-width: 0.9836065573770492;"/><polygon fill="#A80036" points="311.2879,408.8293,320.7105,411.0787,316.123,407.93,319.2716,403.3425,311.2879,408.8293" style="stroke: #A80036; stroke-width: 0.9836065573770492;"/><text fill="#000000" font-family="sans-serif" font-size="12.7869" lengthAdjust="spacingAndGlyphs" textLength="55.082" x="334.6957" y="405.7555">New Data</text><!--link long1 to ProcessData--><path d="M222.5646,437.0352 C222.5646,453.2618 222.5646,472.144 222.5646,487.3768 " fill="none" id="long1-ProcessData" style="stroke: #A80036; stroke-width: 0.9836065573770492;"/><polygon fill="#A80036" points="222.5646,492.3938,226.499,483.5413,222.5646,487.4757,218.6302,483.5413,222.5646,492.3938" style="stroke: #A80036; stroke-width: 0.9836065573770492;"/><text fill="#000000" font-family="sans-serif" font-size="12.7869" lengthAdjust="spacingAndGlyphs" textLength="73.7705" x="223.5482" y="470.6735">Enough Data</text><!--link *start to State1--><path d="M392.0833,32.459 C402.003,32.459 411.9216,32.459 421.8413,32.459 " fill="none" id="*start-State1" style="stroke: #A80036; stroke-width: 0.9836065573770492;"/><polygon fill="#A80036" points="427.0289,32.459,418.1764,28.5246,422.1108,32.459,418.1764,36.3934,427.0289,32.459" style="stroke: #A80036; stroke-width: 0.9836065573770492;"/><!--link State1 to State2--><path d="M427.023,54.2331 C394.9308,76.558 344.0164,111.9767 310.2915,135.4377 " fill="none" id="State1-State2" style="stroke: #A80036; stroke-width: 0.9836065573770492;"/><polygon fill="#A80036" points="305.8554,138.5233,315.3691,136.6969,309.8924,135.7144,310.8749,130.2377,305.8554,138.5233" style="stroke: #A80036; stroke-width: 0.9836065573770492;"/><text fill="#000000" font-family="sans-serif" font-size="12.7869" lengthAdjust="spacingAndGlyphs" textLength="63.9344" x="378.2203" y="102.1947">Succeeded</text><!--link State1 to *end--><path d="M469.1813,57.1367 C508.1528,136.0023 620.278,393.8459 511.0072,556.7213 C460.6121,631.8392 336.6728,642.6238 293.7757,644.0745 " fill="none" id="State1-*end" style="stroke: #A80036; stroke-width: 0.9836065573770492;"/><polygon fill="#A80036" points="288.7289,644.2137,297.687,647.9013,293.645,644.0774,297.4689,640.0355,288.7289,644.2137" style="stroke: #A80036; stroke-width: 0.9836065573770492;"/><text fill="#000000" font-family="sans-serif" font-size="12.7869" lengthAdjust="spacingAndGlyphs" textLength="44.2623" x="535.5974" y="230.0636">Aborted</text><!--link State2 to State3--><path d="M275.9252,185.0784 C275.9252,203.2908 275.9252,230.1236 275.9252,258.9452 " fill="none" id="State2-State3" style="stroke: #A80036; stroke-width: 0.9836065573770492;"/><polygon fill="#A80036" points="275.9252,263.9656,279.8597,255.1131,275.9252,259.0475,271.9908,255.1131,275.9252,263.9656" style="stroke: #A80036; stroke-width: 0.9836065573770492;"/><text fill="#000000" font-family="sans-serif" font-size="12.7869" lengthAdjust="spacingAndGlyphs" textLength="63.9344" x="276.9089" y="230.0636">Succeeded</text><!--link State2 to *end--><path d="M246.1711,165.2479 C197.0656,173.5239 100.34,197.7521 58.5484,263.6066 C-11.2544,373.6003 -11.9796,447.1908 58.5484,556.7213 C105.0393,628.9214 222.0895,641.5823 263.8131,643.7958 " fill="none" id="State2-*end" style="stroke: #A80036; stroke-width: 0.9836065573770492;"/><polygon fill="#A80036" points="268.9643,644.0352,260.3046,639.6928,264.0516,643.8061,259.9382,647.5531,268.9643,644.0352" style="stroke: #A80036; stroke-width: 0.9836065573770492;"/><text fill="#000000" font-family="sans-serif" font-size="12.7869" lengthAdjust="spacingAndGlyphs" textLength="44.2623" x="59.532" y="415.9652">Aborted</text><!--link State3 to State3--><path d="M428.8082,379.4961 C449.2367,384.6816 462.8105,394.9043 462.8105,410.1639 C462.8105,424.1115 451.4695,433.8521 433.919,439.383 " fill="none" id="State3-State3" style="stroke: #A80036; stroke-width: 0.9836065573770492;"/><polygon fill="#A80036" points="428.8082,440.8318,438.3979,442.204,433.54,439.4911,436.2528,434.6331,428.8082,440.8318" style="stroke: #A80036; stroke-width: 0.9836065573770492;"/><text fill="#000000" font-family="sans-serif" font-size="12.7869" lengthAdjust="spacingAndGlyphs" textLength="34.4262" x="468.7121" y="415.9652">Failed</text><!--link State3 to *end--><path d="M172.3161,556.3948 C170.1305,573.5176 172.9889,590.3958 183.4662,605.9016 C201.6197,632.7658 242.0331,640.8201 263.9872,643.2326 " fill="none" id="State3-*end" style="stroke: #A80036; stroke-width: 0.9836065573770492;"/><polygon fill="#A80036" points="269.1462,643.7323,260.7151,638.9614,264.2512,643.2574,259.9552,646.7935,269.1462,643.7323" style="stroke: #A80036; stroke-width: 0.9836065573770492;"/><text fill="#000000" font-family="sans-serif" font-size="12.7869" lengthAdjust="spacingAndGlyphs" textLength="143.6066" x="184.4498" y="601.8668">Succeeded / Save Result</text><!--link State3 to *end--><path d="M327.9452,556.438 C330.3266,566.4354 332.3764,576.4294 333.958,586.2295 C335.3518,594.861 338.0056,598.1515 333.958,605.9016 C325.3111,622.4616 305.8938,633.3245 292.5856,639.1314 " fill="none" id="State3-*end" style="stroke: #A80036; stroke-width: 0.9836065573770492;"/><polygon fill="#A80036" points="287.9902,641.0432,297.6748,641.2765,292.5311,639.1546,294.653,634.011,287.9902,641.0432" style="stroke: #A80036; stroke-width: 0.9836065573770492;"/><text fill="#000000" font-family="sans-serif" font-size="12.7869" lengthAdjust="spacingAndGlyphs" textLength="44.2623" x="336.9089" y="601.8668">Aborted</text><!--
@startuml
scale 600 width

[*] -> State1
State1 - -> State2 : Succeeded
State1 - -> [*] : Aborted
State2 - -> State3 : Succeeded
State2 - -> [*] : Aborted
state State3 {
  state "Accumulate Enough Data\nLong State Name" as long1
  long1 : Just a test
  [*] - -> long1
  long1 - -> long1 : New Data
  long1 - -> ProcessData : Enough Data
}
State3 - -> State3 : Failed
State3 - -> [*] : Succeeded / Save Result
State3 - -> [*] : Aborted
 
@enduml

PlantUML version 1.2017.15(Tue Jul 04 00:45:34 SGT 2017)
(GPL source distribution)
Java Runtime: Java(TM) SE Runtime Environment
JVM: Java HotSpot(TM) 64-Bit Server VM
Java Version: 1.8.0_101-b13
Operating System: Windows 10
OS Version: 10.0
Default Encoding: GBK
Language: en
Country: US
--></g></svg>